{"canvas_config":{"height":1280,"ratio":"original","width":720},"color_space":0,"config":{"adjust_max_index":1,"attachment_info":[],"combination_max_index":1,"extract_audio_last_index":2,"lyrics_recognition_id":"","lyrics_sync":true,"lyrics_taskinfo":[],"maintrack_adsorb":true,"material_save_mode":0,"original_sound_last_index":1,"record_audio_last_index":1,"sticker_max_index":1,"subtitle_recognition_id":"","subtitle_sync":true,"subtitle_taskinfo":[],"system_font_list":[],"video_mute":true},"create_time":1646773059423191,"duration":7689185,"extra_info":{},"fps":30,"free_render_index_mode_on":false,"id":"141033D4-96A4-446A-A2AE-F5B067AE7513","keyframe_graph_list":[],"keyframes":{"adjusts":[],"audios":[],"effects":[],"filters":[],"handwrites":[],"stickers":[],"texts":[],"videos":[]},"last_modified_platform":{"app_id":3006,"app_source":"cc","app_version":"8.5.1","device_id":"","hard_disk_id":"","mac_address":"","os":"iOS","os_version":"16.5.1"},"materials":{"audio_balances":[],"audio_effects":[],"audio_fades":[],"audios":[{"app_id":0,"category_id":"","category_name":"extract_video","check_flag":1,"duration":11748000,"effect_id":"","formula_id":"","id":"3A783E1C-C28B-44FF-A988-9A8FD172D7F9","intensifies_path":"","local_material_id":"","music_id":"","name":"Extracted20220308-01","path":"audio/E947F208-D1EF-457B-B1FB-E8EE43EFAA85.mov","request_id":"","resource_id":"","source_platform":0,"team_id":"","text_id":"","tone_category_id":"","tone_category_name":"","tone_effect_id":"","tone_effect_name":"","tone_speaker":"","tone_type":"","type":"extract_music","video_id":"","wave_points":[]}],"beats":[{"ai_beats":{"beats_path":"beats/d25b30f3af2af4266fbcddcb0a225341_beats_points.json","beats_url":"","melody_path":"","melody_percents":[0.6,0.6],"melody_url":""},"enable_ai_beats":true,"gear":1,"id":"60EE0AB5-2E85-41B7-A605-D8953F1156B0","mode":1,"type":"beats","user_beats":[]}],"canvases":[{"album_image":"","blur":0,"color":"","id":"6EA399B1-914C-4B76-9ABF-573A78E515E9","image":"","image_id":"","image_name":"","source_platform":0,"team_id":"","type":"canvas_color"},{"album_image":"","blur":0,"color":"","id":"BEB8D9F7-8057-41E9-8196-581201C1E219","image":"","image_id":"","image_name":"","source_platform":0,"team_id":"","type":"canvas_color"},{"album_image":"","blur":0,"color":"","id":"0C11B60F-2F38-4255-B274-346B28E70687","image":"","image_id":"","image_name":"","source_platform":0,"team_id":"","type":"canvas_color"},{"album_image":"","blur":0,"color":"","id":"604C3EEE-C365-4728-8E59-34CCAEC5AD04","image":"","image_id":"","image_name":"","source_platform":0,"team_id":"","type":"canvas_color"},{"album_image":"","blur":0,"color":"","id":"1748474D-B134-46B3-9C65-14925EE0A93E","image":"","image_id":"","image_name":"","source_platform":0,"team_id":"","type":"canvas_color"},{"album_image":"","blur":0,"color":"","id":"335FFCF5-60CE-4160-A079-E619D94A750B","image":"","image_id":"","image_name":"","source_platform":0,"team_id":"","type":"canvas_color"},{"album_image":"","blur":0,"color":"","id":"3AE5006D-0F31-44FC-940E-11538FCFC8AF","image":"","image_id":"","image_name":"","source_platform":0,"team_id":"","type":"canvas_color"},{"album_image":"","blur":0,"color":"","id":"1B9E470A-3164-4172-9C8A-656724212E85","image":"","image_id":"","image_name":"","source_platform":0,"team_id":"","type":"canvas_color"},{"album_image":"","blur":0,"color":"","id":"898E4137-527A-4986-A4F5-CB617821F476","image":"","image_id":"","image_name":"","source_platform":0,"team_id":"","type":"canvas_color"},{"album_image":"","blur":0,"color":"","id":"25B1A0BA-00E4-4C29-9E39-87456C906C1E","image":"","image_id":"","image_name":"","source_platform":0,"team_id":"","type":"canvas_color"},{"album_image":"","blur":0,"color":"","id":"415CED7E-9C94-4E18-8E90-2B610420612D","image":"","image_id":"","image_name":"","source_platform":0,"team_id":"","type":"canvas_color"},{"album_image":"","blur":0,"color":"","id":"BA605E04-61BB-4029-9D61-87AB3CA59651","image":"","image_id":"","image_name":"","source_platform":0,"team_id":"","type":"canvas_color"}],"chromas":[],"color_curves":[],"drafts":[],"effects":[{"adjust_params":[],"algorithm_artifact_path":"","apply_target_type":0,"category_id":"","category_name":"","effect_id":"3199886","enable_skin_tone_correction":false,"exclusion_group":[],"face_adjust_params":[],"formula_id":"","id":"BFCEFF9C-EB6B-49B3-8C19-26136BCE9B56","intensity_key":"","name":"Overlay","panel_id":"","path":"mixVideo/9e5e36db718590aba93cb461025e2b00","platform":"all","request_id":"","resource_id":"6758324989931295240","source_platform":0,"sub_type":"none","type":"mix_mode","value":0,"version":""}],"green_screens":[],"handwrites":[],"hsl":[],"images":[],"log_color_wheels":[],"manual_deformations":[],"masks":[],"material_animations":[{"animations":[],"id":"AFFF5B1E-FF81-4CEF-88BD-A234B3B0A5BE","type":"sticker_animation"},{"animations":[{"category_id":"24611","category_name":"out","duration":994371,"id":"3202706","material_type":"video","name":"Fade Out","panel":"video","path":"animation/a38d418dd5ac1bb821802275600a0e70","platform":"all","resource_id":"6798320902548230669","start":0,"type":"out"}],"id":"AFF2A08B-7D68-4FA1-9EA5-1BE9A931C87B","type":"sticker_animation"},{"animations":[{"category_id":"24610","category_name":"in","duration":980921,"id":"3202705","material_type":"video","name":"Fade In","panel":"video","path":"animation/3ed215a8c0718637d29b2481b0a857b6","platform":"all","resource_id":"6798320778182922760","start":0,"type":"in"},{"category_id":"24611","category_name":"out","duration":0,"id":"3202706","material_type":"video","name":"Fade Out","panel":"video","path":"animation/a38d418dd5ac1bb821802275600a0e70","platform":"all","resource_id":"6798320902548230669","start":980921,"type":"out"}],"id":"5EC08EED-87C9-47B6-9CCF-5C9184510BFB","type":"sticker_animation"},{"animations":[{"category_id":"","category_name":"","duration":0,"id":"","material_type":"sticker","name":"","panel":"","path":"","platform":"all","resource_id":"","start":0,"type":"caption"},{"category_id":"","category_name":"","duration":0,"id":"","material_type":"sticker","name":"","panel":"","path":"","platform":"all","resource_id":"","start":0,"type":"loop"},{"anim_adjust_params":{"anim_mode":"all","direction":""},"category_id":"24568","category_name":"Out","duration":441096,"id":"3200750","material_type":"sticker","name":"Fade Out","panel":"","path":"animation/6ecc8fa1d956c3e14c84cdc0679982a9","platform":"all","resource_id":"6724919382104871427","start":0,"type":"out"},{"anim_adjust_params":{"anim_mode":"all","direction":""},"category_id":"24567","category_name":"In","duration":401790,"id":"3200732","material_type":"sticker","name":"Fade In","panel":"","path":"animation/df8c37ef729322e93086710a01f5ce77","platform":"all","resource_id":"6724916044072227332","start":0,"type":"in"}],"id":"FDD1D995-4809-4708-BD16-1D261AAFD939","type":"sticker_animation"},{"animations":[{"category_id":"","category_name":"","duration":0,"id":"","material_type":"sticker","name":"","panel":"","path":"","platform":"all","resource_id":"","start":0,"type":"caption"},{"category_id":"","category_name":"","duration":0,"id":"","material_type":"sticker","name":"","panel":"","path":"","platform":"all","resource_id":"","start":0,"type":"loop"},{"anim_adjust_params":{"anim_mode":"all","direction":""},"category_id":"24568","category_name":"Out","duration":976070,"id":"3200750","material_type":"sticker","name":"Fade Out","panel":"","path":"animation/6ecc8fa1d956c3e14c84cdc0679982a9","platform":"all","resource_id":"6724919382104871427","start":0,"type":"out"},{"anim_adjust_params":{"anim_mode":"all","direction":""},"category_id":"24567","category_name":"In","duration":999420,"id":"3200732","material_type":"sticker","name":"Fade In","panel":"","path":"animation/df8c37ef729322e93086710a01f5ce77","platform":"all","resource_id":"6724916044072227332","start":0,"type":"in"}],"id":"D2F952C9-97DF-48B9-9A60-D1AD528F422F","type":"sticker_animation"}],"placeholders":[],"plugin_effects":[],"primary_color_wheels":[],"realtime_denoises":[{"denoise_mode":0,"denoise_rate":0.85,"id":"954D4AD0-A4BC-49B5-98D6-A096431D9E3E","is_denoise":false,"path":"","sami_name":"denoise_v2","sami_type":0,"sami_version":"1.0","type":"realtime_denoise"},{"denoise_mode":0,"denoise_rate":0.85,"id":"9E0B3606-8873-40D1-9170-71AF2C0B0908","is_denoise":false,"path":"","sami_name":"denoise_v2","sami_type":0,"sami_version":"1.0","type":"realtime_denoise"},{"denoise_mode":0,"denoise_rate":0.85,"id":"82AAF526-7DD4-4B55-9BC6-64A74134E7EC","is_denoise":false,"path":"","sami_name":"denoise_v2","sami_type":0,"sami_version":"1.0","type":"realtime_denoise"},{"denoise_mode":0,"denoise_rate":0.85,"id":"603FF6C4-B1A5-45DC-9B3E-6B8C7CFAF8E3","is_denoise":false,"path":"","sami_name":"denoise_v2","sami_type":0,"sami_version":"1.0","type":"realtime_denoise"},{"denoise_mode":0,"denoise_rate":0.85,"id":"E51C5CE4-BCCD-4F38-96E8-F4A183E44D7A","is_denoise":false,"path":"","sami_name":"denoise_v2","sami_type":0,"sami_version":"1.0","type":"realtime_denoise"},{"denoise_mode":0,"denoise_rate":0.85,"id":"0C046807-0EF4-44B2-ACAD-2DC11B660B3D","is_denoise":false,"path":"","sami_name":"denoise_v2","sami_type":0,"sami_version":"1.0","type":"realtime_denoise"},{"denoise_mode":0,"denoise_rate":0.85,"id":"180B8A86-B155-4D75-8FC9-2DF5F9F4A816","is_denoise":false,"path":"","sami_name":"denoise_v2","sami_type":0,"sami_version":"1.0","type":"realtime_denoise"},{"denoise_mode":0,"denoise_rate":0.85,"id":"990F5527-32C3-4717-9FE5-6312F7014626","is_denoise":false,"path":"","sami_name":"denoise_v2","sami_type":0,"sami_version":"1.0","type":"realtime_denoise"},{"denoise_mode":0,"denoise_rate":0.85,"id":"7617DB53-FA02-4EAB-BCB0-EB1ADF5CDABC","is_denoise":false,"path":"","sami_name":"denoise_v2","sami_type":0,"sami_version":"1.0","type":"realtime_denoise"},{"denoise_mode":0,"denoise_rate":0.85,"id":"88F7239E-C6EE-485D-B4D4-563A72B57610","is_denoise":false,"path":"","sami_name":"denoise_v2","sami_type":0,"sami_version":"1.0","type":"realtime_denoise"}],"sound_channel_mappings":[{"audio_channel_mapping":0,"id":"94CCA2A9-B465-4BB1-A589-F870D71B6939","is_config_open":false,"type":"none"},{"audio_channel_mapping":0,"id":"626C70D1-2F47-480F-A002-4CEA970999A6","is_config_open":false,"type":"none"},{"audio_channel_mapping":0,"id":"9549509C-3355-42E3-882B-1C3633DCAB98","is_config_open":false,"type":"none"},{"audio_channel_mapping":0,"id":"CDF172C7-30F5-4F36-B333-134032099FCC","is_config_open":false,"type":"none"},{"audio_channel_mapping":0,"id":"8BAB9C91-01B4-4CDD-8D44-4DF3BA26B5CB","is_config_open":false,"type":"none"},{"audio_channel_mapping":0,"id":"EB861986-1CC7-4A04-A000-3BA56F0F08C2","is_config_open":false,"type":"none"},{"audio_channel_mapping":0,"id":"48F6E9AD-C0AA-4FCF-A57A-EE1373D57FB2","is_config_open":false,"type":"none"},{"audio_channel_mapping":0,"id":"07D88A86-F95B-45D8-A17C-378DFFF38E63","is_config_open":false,"type":"none"},{"audio_channel_mapping":0,"id":"F18E4993-D62C-404B-B95F-CFE17953F057","is_config_open":false,"type":"none"},{"audio_channel_mapping":0,"id":"F6A48E28-7DE7-44BD-BB9A-ACC4655EACDF","is_config_open":false,"type":"none"},{"audio_channel_mapping":0,"id":"47DC6767-BDEE-420D-8F4A-0361C58BDE95","is_config_open":false,"type":""},{"audio_channel_mapping":0,"id":"1C167D20-025C-4768-81A9-0AC417B3D134","is_config_open":false,"type":""},{"audio_channel_mapping":0,"id":"8495DD27-E29B-496B-B357-3BC871BFA0F9","is_config_open":false,"type":"none"}],"speeds":[{"id":"262DEC88-8FD9-4EF4-A300-F4243CF012F7","mode":0,"speed":1,"type":"speed"},{"id":"D9704C44-FB6B-428C-B7CE-7AD098DF9828","mode":0,"speed":1,"type":"speed"},{"id":"E34D09D8-5672-471E-B8E1-EE1BF68B2BA5","mode":0,"speed":1,"type":"speed"},{"id":"0489389E-C844-45E4-AA79-9E8BE44BD70C","mode":0,"speed":1,"type":"speed"},{"id":"F006E55A-0E28-4EF0-A5F4-70D5998837AE","mode":0,"speed":1,"type":"speed"},{"id":"48A0054D-4DFE-4A9C-9406-6BC39D75E883","mode":0,"speed":1,"type":"speed"},{"id":"3B0372F3-949C-4BD1-9B6A-E6A5E248D449","mode":0,"speed":1,"type":"speed"},{"id":"4485C909-7AEB-48AA-8E96-11C5E1443BAE","mode":0,"speed":1,"type":"speed"},{"id":"E24701F3-581C-4FE6-A548-4C6C83C73ADB","mode":0,"speed":1,"type":"speed"},{"id":"DF27D2E6-B4F2-486D-BDD3-F2149ACB01D7","mode":0,"speed":1,"type":"speed"},{"id":"87FEA095-C1B3-4D94-AE80-B7ECC9B94C8A","mode":0,"speed":1,"type":"speed"},{"id":"0A381596-44FF-4339-A3A8-B4A72729CEDA","mode":0,"speed":1,"type":"speed"},{"id":"D4133E57-D2AA-490D-874E-376E98602738","mode":0,"speed":1,"type":"speed"}],"stickers":[],"tail_leaders":[],"text_templates":[],"texts":[{"add_type":0,"alignment":1,"background_alpha":1,"background_color":"","background_height":0,"background_horizontal_offset":0,"background_round_radius":0,"background_style":0,"background_vertical_offset":0,"background_width":0,"bold_width":0,"border_color":"","border_width":0.059999998658895,"check_flag":7,"content":"<useLetterColor><size=15><font id=\"6740498577912500749\" path=\"text/3bd3fe9a9464df4555335393bb266aba/Modern.ttf\">[Remember i‚Äôll always love]</font></size></useLetterColor>","font_category_id":"","font_category_name":"","font_id":"3197280","font_name":"","font_path":"text/3bd3fe9a9464df4555335393bb266aba/Modern.ttf","font_resource_id":"6740498577912500749","font_size":15,"font_source_platform":0,"font_team_id":"","font_title":"","font_url":"","fonts":[{"category_id":"24519","category_name":"English","effect_id":"3197280","id":"FDF3FDDB-D17F-4A7E-BA36-1D73C58B00F3","path":"text/3bd3fe9a9464df4555335393bb266aba/Modern.ttf","resource_id":"6740498577912500749","source_platform":0,"team_id":"","title":"Modern"}],"force_apply_line_max_width":false,"global_alpha":1,"group_id":"","has_shadow":false,"id":"CE6CA581-8C3A-4C41-B901-E1B033DB3CDA","initial_scale":1,"is_rich_text":false,"italic_degree":0,"ktv_color":"","language":"","layer_weight":0,"letter_spacing":0,"line_spacing":0.100000001490116,"name":"","preset_category":"","preset_category_id":"","preset_has_set_alignment":false,"preset_id":"","preset_index":0,"preset_name":"","recognize_type":0,"relevance_segment":[],"shadow_alpha":0,"shadow_angle":0,"shadow_color":"","shadow_distance":0,"shadow_point":{"x":0,"y":0},"shadow_smoothing":0,"shape_clip_x":false,"shape_clip_y":false,"style_name":"","sub_type":0,"text_alpha":1,"text_color":"","text_preset_resource_id":"","text_size":30,"text_to_audio_ids":[],"tts_auto_update":false,"type":"text","typesetting":0,"underline":false,"underline_offset":0.22,"underline_width":0.05,"use_effect_default_color":false,"words":[]},{"add_type":0,"alignment":1,"background_alpha":1,"background_color":"","background_height":0,"background_horizontal_offset":0,"background_round_radius":0,"background_style":0,"background_vertical_offset":0,"background_width":0,"bold_width":0,"border_color":"","border_width":0,"check_flag":7,"content":"<useLetterColor><shadow color=(0,0,0,0) offset=(0.056569,-0.056569) smooth=0.05555 angle=-45><size=15><font id=\"6740498577912500749\" path=\"text/3bd3fe9a9464df4555335393bb266aba/Modern.ttf\">[YOU ‚ù§Ô∏è‚Äçü©π]</font></size></shadow></useLetterColor>","font_category_id":"","font_category_name":"","font_id":"3197280","font_name":"","font_path":"text/3bd3fe9a9464df4555335393bb266aba/Modern.ttf","font_resource_id":"6740498577912500749","font_size":15,"font_source_platform":0,"font_team_id":"","font_title":"none","font_url":"","fonts":[{"category_id":"24519","category_name":"English","effect_id":"3197280","id":"ED8D50B8-E5E4-4028-80BE-F81B7CD7D75E","path":"text/3bd3fe9a9464df4555335393bb266aba/Modern.ttf","resource_id":"6740498577912500749","source_platform":0,"team_id":"","title":"Modern"}],"force_apply_line_max_width":false,"global_alpha":1,"group_id":"","has_shadow":false,"id":"8D90D0FC-BF11-4DB9-A95C-8979BBF4FDA7","initial_scale":1,"is_rich_text":false,"italic_degree":0,"ktv_color":"","language":"","layer_weight":1,"letter_spacing":0,"line_spacing":0,"name":"","preset_category":"","preset_category_id":"","preset_has_set_alignment":false,"preset_id":"","preset_index":0,"preset_name":"","recognize_type":0,"relevance_segment":[],"shadow_alpha":0,"shadow_angle":0,"shadow_color":"","shadow_distance":0,"shadow_point":{"x":0,"y":0},"shadow_smoothing":0,"shape_clip_x":false,"shape_clip_y":false,"style_name":"","sub_type":0,"text_alpha":1,"text_color":"#ffffff","text_preset_resource_id":"","text_size":30,"text_to_audio_ids":[],"tts_auto_update":false,"type":"text","typesetting":0,"underline":false,"underline_offset":0.22,"underline_width":0.05,"use_effect_default_color":false,"words":[]}],"transitions":[],"video_effects":[{"adjust_params":[{"default_value":0.35,"name":"effects_adjust_sharpen","value":0.509999990463257},{"default_value":0.5,"name":"effects_adjust_blur","value":0.5},{"default_value":0.2,"name":"effects_adjust_size","value":0.199999988079071},{"default_value":0.2,"name":"effects_adjust_speed","value":0.089999996125698},{"default_value":0.4,"name":"effects_adjust_intensity","value":0.4},{"default_value":0.55,"name":"effects_adjust_distortion","value":0.55}],"apply_target_type":0,"category_id":"26928","category_name":"distortion2","common_keyframes":[],"effect_id":"7030736","formula_id":"","id":"BFA3B644-DBD4-41B4-B546-7D22C18A24AC","name":"Ripple Distortion","path":"","platform":"all","render_index":0,"request_id":"2023071318303169B6AADEAC8547F8D39E","resource_id":"7173547719485559298","source_platform":0,"track_render_index":0,"type":"video_effect","value":1,"version":""}],"video_trackings":[],"videos":[{"cartoon_path":"","category_id":"","category_name":"","check_flag":63487,"crop":{"lower_left_x":0,"lower_left_y":1,"lower_right_x":1,"lower_right_y":1,"upper_left_x":0,"upper_left_y":0,"upper_right_x":1,"upper_right_y":0},"crop_ratio":"free","crop_scale":1,"duration":10800000000,"extra_type_option":0,"formula_id":"","has_audio":false,"height":1200,"id":"3378837F-230F-43C2-A67E-2C2340F8073A","intensifies_audio_path":"","intensifies_path":"","is_unified_beauty_mode":false,"local_id":"BFFC9B36-7A54-4D0C-B53A-51645ECB0E0B/L0/001","local_material_id":"","material_id":"","material_name":"","material_url":"","matting":{"flag":0,"has_use_quick_brush":false,"has_use_quick_eraser":false,"interactiveTime":[],"path":"","strokes":[]},"media_path":"","origin_material_id":"","path":"video/IOS_ALBUM@BFFC9B36-7A54-4D0C-B53A-51645ECB0E0B_L0_001@1689272736000.png","picture_from":"none","picture_set_category_id":"","picture_set_category_name":"","request_id":"","reverse_intensifies_path":"","reverse_path":"","source_platform":0,"team_id":"","type":"photo","video_algorithm":{"algorithms":[],"path":""},"width":900},{"cartoon_path":"","category_id":"","category_name":"","check_flag":63487,"crop":{"lower_left_x":0,"lower_left_y":1,"lower_right_x":1,"lower_right_y":1,"upper_left_x":0,"upper_left_y":0,"upper_right_x":1,"upper_right_y":0},"crop_ratio":"free","crop_scale":1,"duration":10800000000,"extra_type_option":0,"formula_id":"","has_audio":false,"height":1000,"id":"FD0EE9D8-E030-480D-AB5A-E7C573E2CB3F","intensifies_audio_path":"","intensifies_path":"","is_unified_beauty_mode":false,"local_id":"B753D8B6-25DE-4699-A21C-94183CE992A0/L0/001","local_material_id":"","material_id":"","material_name":"","material_url":"","matting":{"flag":0,"has_use_quick_brush":false,"has_use_quick_eraser":false,"interactiveTime":[],"path":"","strokes":[]},"media_path":"","origin_material_id":"","path":"video/IOS_ALBUM@B753D8B6-25DE-4699-A21C-94183CE992A0_L0_001@1689272547000.png","picture_from":"none","picture_set_category_id":"","picture_set_category_name":"","request_id":"","reverse_intensifies_path":"","reverse_path":"","source_platform":0,"team_id":"","type":"photo","video_algorithm":{"algorithms":[],"path":""},"width":750},{"cartoon_path":"","category_id":"","category_name":"","check_flag":63487,"crop":{"lower_left_x":0,"lower_left_y":1,"lower_right_x":1,"lower_right_y":1,"upper_left_x":0,"upper_left_y":0,"upper_right_x":1,"upper_right_y":0},"crop_ratio":"free","crop_scale":1,"duration":10800000000,"extra_type_option":0,"formula_id":"","has_audio":false,"height":1200,"id":"1F540FB4-5950-4343-A779-5A2973D0F670","intensifies_audio_path":"","intensifies_path":"","is_unified_beauty_mode":false,"local_id":"96921D27-0C8D-4EC7-BA30-CCE21067172B/L0/001","local_material_id":"","material_id":"","material_name":"","material_url":"","matting":{"flag":0,"has_use_quick_brush":false,"has_use_quick_eraser":false,"interactiveTime":[],"path":"","strokes":[]},"media_path":"","origin_material_id":"","path":"video/IOS_ALBUM@96921D27-0C8D-4EC7-BA30-CCE21067172B_L0_001@1689272535000.png","picture_from":"none","picture_set_category_id":"","picture_set_category_name":"","request_id":"","reverse_intensifies_path":"","reverse_path":"","source_platform":0,"team_id":"","type":"photo","video_algorithm":{"algorithms":[],"path":""},"width":642},{"cartoon_path":"","category_id":"","category_name":"","check_flag":63487,"crop":{"lower_left_x":0,"lower_left_y":1,"lower_right_x":1,"lower_right_y":1,"upper_left_x":0,"upper_left_y":0,"upper_right_x":1,"upper_right_y":0},"crop_ratio":"free","crop_scale":1,"duration":10800000000,"extra_type_option":0,"formula_id":"","has_audio":false,"height":1200,"id":"C3FFFE3D-E920-4CBD-B309-A4DE2D1FD5FB","intensifies_audio_path":"","intensifies_path":"","is_unified_beauty_mode":false,"local_id":"CDCE560C-CDA6-4318-B218-F6F28B4EB760/L0/001","local_material_id":"","material_id":"","material_name":"","material_url":"","matting":{"flag":0,"has_use_quick_brush":false,"has_use_quick_eraser":false,"interactiveTime":[],"path":"","strokes":[]},"media_path":"","origin_material_id":"","path":"video/IOS_ALBUM@CDCE560C-CDA6-4318-B218-F6F28B4EB760_L0_001@1689272530000.png","picture_from":"none","picture_set_category_id":"","picture_set_category_name":"","request_id":"","reverse_intensifies_path":"","reverse_path":"","source_platform":0,"team_id":"","type":"photo","video_algorithm":{"algorithms":[],"path":""},"width":900},{"cartoon_path":"","category_id":"","category_name":"","check_flag":63487,"crop":{"lower_left_x":0,"lower_left_y":1,"lower_right_x":1,"lower_right_y":1,"upper_left_x":0,"upper_left_y":0,"upper_right_x":1,"upper_right_y":0},"crop_ratio":"free","crop_scale":1,"duration":10800000000,"extra_type_option":0,"formula_id":"","has_audio":false,"height":1200,"id":"8C775512-5C31-4CBB-9E79-A01F70667BBC","intensifies_audio_path":"","intensifies_path":"","is_unified_beauty_mode":false,"local_id":"02AFE59E-1CBF-4AEB-BA62-F1FA948DEDA5/L0/001","local_material_id":"","material_id":"","material_name":"","material_url":"","matting":{"flag":0,"has_use_quick_brush":false,"has_use_quick_eraser":false,"interactiveTime":[],"path":"","strokes":[]},"media_path":"","origin_material_id":"","path":"video/IOS_ALBUM@02AFE59E-1CBF-4AEB-BA62-F1FA948DEDA5_L0_001@1689272504000.png","picture_from":"none","picture_set_category_id":"","picture_set_category_name":"","request_id":"","reverse_intensifies_path":"","reverse_path":"","source_platform":0,"team_id":"","type":"photo","video_algorithm":{"algorithms":[],"path":""},"width":900},{"cartoon_path":"","category_id":"","category_name":"","check_flag":63487,"crop":{"lower_left_x":0,"lower_left_y":1,"lower_right_x":1,"lower_right_y":1,"upper_left_x":0,"upper_left_y":0,"upper_right_x":1,"upper_right_y":0},"crop_ratio":"free","crop_scale":1,"duration":10800000000,"extra_type_option":0,"formula_id":"","has_audio":false,"height":981,"id":"FB807BA2-D842-4AB7-83BA-7C16930D3D9D","intensifies_audio_path":"","intensifies_path":"","is_unified_beauty_mode":false,"local_id":"1603A00E-4C14-49A3-AA12-1D93E5E852B2/L0/001","local_material_id":"","material_id":"","material_name":"","material_url":"","matting":{"flag":0,"has_use_quick_brush":false,"has_use_quick_eraser":false,"interactiveTime":[],"path":"","strokes":[]},"media_path":"","origin_material_id":"","path":"video/IOS_ALBUM@1603A00E-4C14-49A3-AA12-1D93E5E852B2_L0_001@1689272458000.png","picture_from":"none","picture_set_category_id":"","picture_set_category_name":"","request_id":"","reverse_intensifies_path":"","reverse_path":"","source_platform":0,"team_id":"","type":"photo","video_algorithm":{"algorithms":[],"path":""},"width":736},{"cartoon_path":"","category_id":"","category_name":"","check_flag":63487,"crop":{"lower_left_x":0,"lower_left_y":1,"lower_right_x":1,"lower_right_y":1,"upper_left_x":0,"upper_left_y":0,"upper_right_x":1,"upper_right_y":0},"crop_ratio":"free","crop_scale":1,"duration":10800000000,"extra_type_option":0,"formula_id":"","has_audio":false,"height":1200,"id":"87793110-C60C-4577-A13B-FB95FCEEF11F","intensifies_audio_path":"","intensifies_path":"","is_unified_beauty_mode":false,"local_id":"0F0F4216-298E-43E6-AC8B-08E5A7CED6E2/L0/001","local_material_id":"","material_id":"","material_name":"","material_url":"","matting":{"flag":0,"has_use_quick_brush":false,"has_use_quick_eraser":false,"interactiveTime":[],"path":"","strokes":[]},"media_path":"","origin_material_id":"","path":"video/IOS_ALBUM@0F0F4216-298E-43E6-AC8B-08E5A7CED6E2_L0_001@1689272665000.png","picture_from":"none","picture_set_category_id":"","picture_set_category_name":"","request_id":"","reverse_intensifies_path":"","reverse_path":"","source_platform":0,"team_id":"","type":"photo","video_algorithm":{"algorithms":[],"path":""},"width":900},{"cartoon_path":"","category_id":"","category_name":"","check_flag":63487,"crop":{"lower_left_x":0,"lower_left_y":1,"lower_right_x":1,"lower_right_y":1,"upper_left_x":0,"upper_left_y":0,"upper_right_x":1,"upper_right_y":0},"crop_ratio":"free","crop_scale":1,"duration":10800000000,"extra_type_option":0,"formula_id":"","has_audio":false,"height":1200,"id":"8A08302C-56B3-4641-8C7B-8BC5C95C36BE","intensifies_audio_path":"","intensifies_path":"","is_unified_beauty_mode":false,"local_id":"AD831506-BBCE-4B6B-91E9-3CDA55039DEC/L0/001","local_material_id":"","material_id":"","material_name":"","material_url":"","matting":{"flag":0,"has_use_quick_brush":false,"has_use_quick_eraser":false,"interactiveTime":[],"path":"","strokes":[]},"media_path":"","origin_material_id":"","path":"video/IOS_ALBUM@AD831506-BBCE-4B6B-91E9-3CDA55039DEC_L0_001@1689272652000.png","picture_from":"none","picture_set_category_id":"","picture_set_category_name":"","request_id":"","reverse_intensifies_path":"","reverse_path":"","source_platform":0,"team_id":"","type":"photo","video_algorithm":{"algorithms":[],"path":""},"width":900},{"cartoon_path":"","category_id":"","category_name":"","check_flag":63487,"crop":{"lower_left_x":0,"lower_left_y":1,"lower_right_x":1,"lower_right_y":1,"upper_left_x":0,"upper_left_y":0,"upper_right_x":1,"upper_right_y":0},"crop_ratio":"free","crop_scale":1,"duration":10800000000,"extra_type_option":0,"formula_id":"","has_audio":false,"height":1308,"id":"F782BE8F-D209-4887-8EFD-0B7A2BEB9529","intensifies_audio_path":"","intensifies_path":"","is_unified_beauty_mode":false,"local_id":"81B0FB31-94C3-42B2-8283-C21B4D552D70/L0/001","local_material_id":"","material_id":"","material_name":"","material_url":"","matting":{"flag":0,"has_use_quick_brush":false,"has_use_quick_eraser":false,"interactiveTime":[],"path":"","strokes":[]},"media_path":"","origin_material_id":"","path":"video/IOS_ALBUM@81B0FB31-94C3-42B2-8283-C21B4D552D70_L0_001@1689272434000.png","picture_from":"none","picture_set_category_id":"","picture_set_category_name":"","request_id":"","reverse_intensifies_path":"","reverse_path":"","source_platform":0,"team_id":"","type":"photo","video_algorithm":{"algorithms":[],"path":""},"width":736},{"cartoon_path":"","category_id":"","category_name":"","check_flag":63487,"crop":{"lower_left_x":0,"lower_left_y":1,"lower_right_x":1,"lower_right_y":1,"upper_left_x":0,"upper_left_y":0,"upper_right_x":1,"upper_right_y":0},"crop_ratio":"free","crop_scale":1,"duration":10800000000,"extra_type_option":0,"formula_id":"","has_audio":true,"height":1080,"id":"DAC4CDC6-0402-4A28-8A7F-F415C07C10BC","intensifies_audio_path":"","intensifies_path":"","is_unified_beauty_mode":false,"local_id":"BDB7BAD9-949D-4EB7-BFBF-6C99F20383A5/L0/001","local_material_id":"","material_id":"","material_name":"","material_url":"","matting":{"flag":0,"has_use_quick_brush":false,"has_use_quick_eraser":false,"interactiveTime":[],"path":"","strokes":[]},"media_path":"","origin_material_id":"","path":"video/IOS_ALBUM@BDB7BAD9-949D-4EB7-BFBF-6C99F20383A5_L0_001@1687372250000.png","picture_from":"none","picture_set_category_id":"","picture_set_category_name":"","request_id":"","reverse_intensifies_path":"","reverse_path":"","source_platform":0,"team_id":"","type":"photo","video_algorithm":{"algorithms":[],"path":""},"width":1053},{"cartoon_path":"","category_id":"24532","category_name":"B&W","check_flag":63487,"crop":{"lower_left_x":0,"lower_left_y":1,"lower_right_x":1,"lower_right_y":1,"upper_left_x":0,"upper_left_y":0,"upper_right_x":1,"upper_right_y":0},"crop_ratio":"free","crop_scale":1,"duration":10800000000,"extra_type_option":0,"formula_id":"","has_audio":true,"height":608,"id":"D9A01438-7D3D-4D99-9FA6-A448BF1182DB","intensifies_audio_path":"","intensifies_path":"","is_unified_beauty_mode":false,"local_id":"","local_material_id":"","material_id":"6795111146530542094","material_name":"Èªë_and","material_url":"","matting":{"flag":0,"has_use_quick_brush":false,"has_use_quick_eraser":false,"interactiveTime":[],"path":"","strokes":[]},"media_path":"","origin_material_id":"","path":"video/6795111146530542094.png","picture_from":"none","picture_set_category_id":"","picture_set_category_name":"","request_id":"","reverse_intensifies_path":"","reverse_path":"","source_platform":0,"team_id":"","type":"photo","video_algorithm":{"algorithms":[],"path":""},"width":1080},{"cartoon_path":"","category_id":"24532","category_name":"B&W","check_flag":63487,"crop":{"lower_left_x":0,"lower_left_y":1,"lower_right_x":1,"lower_right_y":1,"upper_left_x":0,"upper_left_y":0,"upper_right_x":1,"upper_right_y":0},"crop_ratio":"free","crop_scale":1,"duration":10800000000,"extra_type_option":0,"formula_id":"","has_audio":true,"height":1080,"id":"89006966-4160-4809-9023-7D3F00C11E5A","intensifies_audio_path":"","intensifies_path":"","is_unified_beauty_mode":false,"local_id":"","local_material_id":"","material_id":"6795111146530542094","material_name":"Èªë_and","material_url":"","matting":{"flag":0,"has_use_quick_brush":false,"has_use_quick_eraser":false,"interactiveTime":[],"path":"","strokes":[]},"media_path":"","origin_material_id":"","path":"video/6795111146530542094.png","picture_from":"none","picture_set_category_id":"","picture_set_category_name":"","request_id":"","reverse_intensifies_path":"","reverse_path":"","source_platform":0,"team_id":"","type":"photo","video_algorithm":{"algorithms":[],"path":""},"width":1920}]},"mutable_config":{"align_mode":"align_video","mutable_materials":[{"cover_path":"video/cover/IOS_ALBUM@BFFC9B36-7A54-4D0C-B53A-51645ECB0E0B_L0_001@1689272736000.jpg","freeze_group":"","id":"3378837F-230F-43C2-A67E-2C2340F8073A","is_user_modified":false,"platform":"all","relation_video_group":""},{"cover_path":"video/cover/IOS_ALBUM@B753D8B6-25DE-4699-A21C-94183CE992A0_L0_001@1689272547000.jpg","freeze_group":"","id":"FD0EE9D8-E030-480D-AB5A-E7C573E2CB3F","is_user_modified":false,"platform":"all","relation_video_group":""},{"cover_path":"video/cover/IOS_ALBUM@96921D27-0C8D-4EC7-BA30-CCE21067172B_L0_001@1689272535000.jpg","freeze_group":"","id":"1F540FB4-5950-4343-A779-5A2973D0F670","is_user_modified":false,"platform":"all","relation_video_group":""},{"cover_path":"video/cover/IOS_ALBUM@CDCE560C-CDA6-4318-B218-F6F28B4EB760_L0_001@1689272530000.jpg","freeze_group":"","id":"C3FFFE3D-E920-4CBD-B309-A4DE2D1FD5FB","is_user_modified":false,"platform":"all","relation_video_group":""},{"cover_path":"video/cover/IOS_ALBUM@02AFE59E-1CBF-4AEB-BA62-F1FA948DEDA5_L0_001@1689272504000.jpg","freeze_group":"","id":"8C775512-5C31-4CBB-9E79-A01F70667BBC","is_user_modified":false,"platform":"all","relation_video_group":""},{"cover_path":"video/cover/IOS_ALBUM@1603A00E-4C14-49A3-AA12-1D93E5E852B2_L0_001@1689272458000.jpg","freeze_group":"","id":"FB807BA2-D842-4AB7-83BA-7C16930D3D9D","is_user_modified":false,"platform":"all","relation_video_group":""},{"cover_path":"video/cover/IOS_ALBUM@0F0F4216-298E-43E6-AC8B-08E5A7CED6E2_L0_001@1689272665000.jpg","freeze_group":"","id":"87793110-C60C-4577-A13B-FB95FCEEF11F","is_user_modified":false,"platform":"all","relation_video_group":""},{"cover_path":"video/cover/IOS_ALBUM@AD831506-BBCE-4B6B-91E9-3CDA55039DEC_L0_001@1689272652000.jpg","freeze_group":"","id":"8A08302C-56B3-4641-8C7B-8BC5C95C36BE","is_user_modified":false,"platform":"all","relation_video_group":""},{"cover_path":"video/cover/IOS_ALBUM@81B0FB31-94C3-42B2-8283-C21B4D552D70_L0_001@1689272434000.jpg","freeze_group":"","id":"F782BE8F-D209-4887-8EFD-0B7A2BEB9529","is_user_modified":false,"platform":"all","relation_video_group":""}]},"name":"","new_version":"73.0.0","platform":{"app_id":3006,"app_source":"cc","app_version":"4.2.0","device_id":"","hard_disk_id":"","mac_address":"","os":"iOS","os_version":"13.5.1"},"relationships":[],"render_index_track_mode_on":false,"source":"default","static_cover_image_path":"","tracks":[{"attribute":1,"flag":0,"id":"E021F79B-67BD-4BE9-8C2E-A08E4540CAEE","segments":[{"cartoon":false,"clip":{"alpha":1,"flip":{"horizontal":false,"vertical":false},"rotation":0,"scale":{"x":1.333333333333333,"y":1.333333333333333},"transform":{"x":0.166666666666667,"y":0}},"common_keyframes":[],"enable_adjust":true,"enable_color_curves":true,"enable_color_wheels":true,"enable_lut":true,"enable_smart_color_adjust":false,"extra_material_refs":["262DEC88-8FD9-4EF4-A300-F4243CF012F7","6EA399B1-914C-4B76-9ABF-573A78E515E9","954D4AD0-A4BC-49B5-98D6-A096431D9E3E","94CCA2A9-B465-4BB1-A589-F870D71B6939"],"group_id":"","hdr_settings":{"intensity":1,"mode":1,"nits":1000},"id":"D5700186-7530-41EA-AF2C-C868F6131EE1","intensifies_audio":false,"is_placeholder":false,"is_tone_modify":false,"keyframe_refs":[],"last_nonzero_volume":1,"material_id":"3378837F-230F-43C2-A67E-2C2340F8073A","render_index":0,"reverse":false,"source_timerange":{"duration":2234400,"start":0},"speed":1,"target_timerange":{"duration":2234400,"start":0},"template_id":"","template_scene":"default","track_attribute":1,"track_render_index":0,"visible":true,"volume":0},{"cartoon":false,"clip":{"alpha":1,"flip":{"horizontal":false,"vertical":false},"rotation":0,"scale":{"x":1.333333333333333,"y":1.333333333333333},"transform":{"x":0,"y":0}},"common_keyframes":[],"enable_adjust":true,"enable_color_curves":true,"enable_color_wheels":true,"enable_lut":true,"enable_smart_color_adjust":false,"extra_material_refs":["D9704C44-FB6B-428C-B7CE-7AD098DF9828","BEB8D9F7-8057-41E9-8196-581201C1E219","9E0B3606-8873-40D1-9170-71AF2C0B0908","626C70D1-2F47-480F-A002-4CEA970999A6"],"group_id":"","hdr_settings":{"intensity":1,"mode":1,"nits":1000},"id":"D7E7E148-A717-4E57-8BB2-62880851AD72","intensifies_audio":false,"is_placeholder":false,"is_tone_modify":false,"keyframe_refs":[],"last_nonzero_volume":1,"material_id":"FD0EE9D8-E030-480D-AB5A-E7C573E2CB3F","render_index":0,"reverse":false,"source_timerange":{"duration":655666,"start":0},"speed":1,"target_timerange":{"duration":655666,"start":2234400},"template_id":"","template_scene":"default","track_attribute":1,"track_render_index":0,"visible":true,"volume":0},{"cartoon":false,"clip":{"alpha":1,"flip":{"horizontal":false,"vertical":false},"rotation":0,"scale":{"x":1.051401869158878,"y":1.051401869158878},"transform":{"x":0,"y":0}},"common_keyframes":[],"enable_adjust":true,"enable_color_curves":true,"enable_color_wheels":true,"enable_lut":true,"enable_smart_color_adjust":false,"extra_material_refs":["E34D09D8-5672-471E-B8E1-EE1BF68B2BA5","0C11B60F-2F38-4255-B274-346B28E70687","82AAF526-7DD4-4B55-9BC6-64A74134E7EC","9549509C-3355-42E3-882B-1C3633DCAB98"],"group_id":"","hdr_settings":{"intensity":1,"mode":1,"nits":1000},"id":"E0C84FE7-B3EA-44A4-A15D-CE9861960942","intensifies_audio":false,"is_placeholder":false,"is_tone_modify":false,"keyframe_refs":[],"last_nonzero_volume":1,"material_id":"1F540FB4-5950-4343-A779-5A2973D0F670","render_index":0,"reverse":false,"source_timerange":{"duration":690043,"start":0},"speed":1,"target_timerange":{"duration":690043,"start":2890066},"template_id":"","template_scene":"default","track_attribute":1,"track_render_index":0,"visible":true,"volume":0},{"cartoon":false,"clip":{"alpha":1,"flip":{"horizontal":false,"vertical":false},"rotation":0,"scale":{"x":1.333333333333333,"y":1.333333333333333},"transform":{"x":0,"y":0}},"common_keyframes":[],"enable_adjust":true,"enable_color_curves":true,"enable_color_wheels":true,"enable_lut":true,"enable_smart_color_adjust":false,"extra_material_refs":["0489389E-C844-45E4-AA79-9E8BE44BD70C","604C3EEE-C365-4728-8E59-34CCAEC5AD04","603FF6C4-B1A5-45DC-9B3E-6B8C7CFAF8E3","CDF172C7-30F5-4F36-B333-134032099FCC"],"group_id":"","hdr_settings":{"intensity":1,"mode":1,"nits":1000},"id":"6ECAFB00-55EC-43A1-842A-140AB8DBC5CC","intensifies_audio":false,"is_placeholder":false,"is_tone_modify":false,"keyframe_refs":[],"last_nonzero_volume":1,"material_id":"C3FFFE3D-E920-4CBD-B309-A4DE2D1FD5FB","render_index":0,"reverse":false,"source_timerange":{"duration":699900,"start":0},"speed":1,"target_timerange":{"duration":699900,"start":3580109},"template_id":"","template_scene":"default","track_attribute":1,"track_render_index":0,"visible":true,"volume":0},{"cartoon":false,"clip":{"alpha":1,"flip":{"horizontal":false,"vertical":false},"rotation":0,"scale":{"x":1.333333333333333,"y":1.333333333333333},"transform":{"x":0,"y":0}},"common_keyframes":[],"enable_adjust":true,"enable_color_curves":true,"enable_color_wheels":true,"enable_lut":true,"enable_smart_color_adjust":false,"extra_material_refs":["F006E55A-0E28-4EF0-A5F4-70D5998837AE","1748474D-B134-46B3-9C65-14925EE0A93E","E51C5CE4-BCCD-4F38-96E8-F4A183E44D7A","8BAB9C91-01B4-4CDD-8D44-4DF3BA26B5CB"],"group_id":"","hdr_settings":{"intensity":1,"mode":1,"nits":1000},"id":"80F98923-3123-4946-935B-3DBB31B6FF55","intensifies_audio":false,"is_placeholder":false,"is_tone_modify":false,"keyframe_refs":[],"last_nonzero_volume":1,"material_id":"8C775512-5C31-4CBB-9E79-A01F70667BBC","render_index":0,"reverse":false,"source_timerange":{"duration":668591,"start":0},"speed":1,"target_timerange":{"duration":668591,"start":4280009},"template_id":"","template_scene":"default","track_attribute":1,"track_render_index":0,"visible":true,"volume":0},{"cartoon":false,"clip":{"alpha":1,"flip":{"horizontal":false,"vertical":false},"rotation":0,"scale":{"x":1.333786385774153,"y":1.333786385774153},"transform":{"x":0.116718587746625,"y":0}},"common_keyframes":[],"enable_adjust":true,"enable_color_curves":true,"enable_color_wheels":true,"enable_lut":true,"enable_smart_color_adjust":false,"extra_material_refs":["48A0054D-4DFE-4A9C-9406-6BC39D75E883","335FFCF5-60CE-4160-A079-E619D94A750B","0C046807-0EF4-44B2-ACAD-2DC11B660B3D","EB861986-1CC7-4A04-A000-3BA56F0F08C2"],"group_id":"","hdr_settings":{"intensity":1,"mode":1,"nits":1000},"id":"D75231B0-81A9-4284-8F49-EAE92407D6E8","intensifies_audio":false,"is_placeholder":false,"is_tone_modify":false,"keyframe_refs":[],"last_nonzero_volume":1,"material_id":"FB807BA2-D842-4AB7-83BA-7C16930D3D9D","render_index":0,"reverse":false,"source_timerange":{"duration":741309,"start":0},"speed":1,"target_timerange":{"duration":741309,"start":4948600},"template_id":"","template_scene":"default","track_attribute":1,"track_render_index":0,"visible":true,"volume":0},{"cartoon":false,"clip":{"alpha":1,"flip":{"horizontal":false,"vertical":false},"rotation":0,"scale":{"x":1.333333333333333,"y":1.333333333333333},"transform":{"x":0,"y":0}},"common_keyframes":[],"enable_adjust":true,"enable_color_curves":true,"enable_color_wheels":true,"enable_lut":true,"enable_smart_color_adjust":false,"extra_material_refs":["3B0372F3-949C-4BD1-9B6A-E6A5E248D449","3AE5006D-0F31-44FC-940E-11538FCFC8AF","180B8A86-B155-4D75-8FC9-2DF5F9F4A816","48F6E9AD-C0AA-4FCF-A57A-EE1373D57FB2"],"group_id":"","hdr_settings":{"intensity":1,"mode":1,"nits":1000},"id":"5B5AEC46-E59A-4186-8934-8B0BEA214316","intensifies_audio":false,"is_placeholder":false,"is_tone_modify":false,"keyframe_refs":[],"last_nonzero_volume":1,"material_id":"87793110-C60C-4577-A13B-FB95FCEEF11F","render_index":0,"reverse":false,"source_timerange":{"duration":700030,"start":0},"speed":1,"target_timerange":{"duration":700030,"start":5689909},"template_id":"","template_scene":"default","track_attribute":1,"track_render_index":0,"visible":true,"volume":0},{"cartoon":false,"clip":{"alpha":1,"flip":{"horizontal":false,"vertical":false},"rotation":0,"scale":{"x":1.333333333333333,"y":1.333333333333333},"transform":{"x":-0.079439252336448,"y":0}},"common_keyframes":[],"enable_adjust":true,"enable_color_curves":true,"enable_color_wheels":true,"enable_lut":true,"enable_smart_color_adjust":false,"extra_material_refs":["4485C909-7AEB-48AA-8E96-11C5E1443BAE","1B9E470A-3164-4172-9C8A-656724212E85","990F5527-32C3-4717-9FE5-6312F7014626","07D88A86-F95B-45D8-A17C-378DFFF38E63"],"group_id":"","hdr_settings":{"intensity":1,"mode":1,"nits":1000},"id":"A8FB2C7C-7AF9-4FDC-BA26-954BEDFADA3B","intensifies_audio":false,"is_placeholder":false,"is_tone_modify":false,"keyframe_refs":[],"last_nonzero_volume":1,"material_id":"8A08302C-56B3-4641-8C7B-8BC5C95C36BE","render_index":0,"reverse":false,"source_timerange":{"duration":710024,"start":0},"speed":1,"target_timerange":{"duration":710024,"start":6389939},"template_id":"","template_scene":"default","track_attribute":1,"track_render_index":0,"visible":true,"volume":0},{"cartoon":false,"clip":{"alpha":1,"flip":{"horizontal":false,"vertical":false},"rotation":0,"scale":{"x":1,"y":1},"transform":{"x":0,"y":0}},"common_keyframes":[],"enable_adjust":true,"enable_color_curves":true,"enable_color_wheels":true,"enable_lut":true,"enable_smart_color_adjust":false,"extra_material_refs":["E24701F3-581C-4FE6-A548-4C6C83C73ADB","898E4137-527A-4986-A4F5-CB617821F476","7617DB53-FA02-4EAB-BCB0-EB1ADF5CDABC","F18E4993-D62C-404B-B95F-CFE17953F057"],"group_id":"","hdr_settings":{"intensity":1,"mode":1,"nits":1000},"id":"C5318123-8017-41EC-809F-65D69DC5DF55","intensifies_audio":false,"is_placeholder":false,"is_tone_modify":false,"keyframe_refs":[],"last_nonzero_volume":1,"material_id":"F782BE8F-D209-4887-8EFD-0B7A2BEB9529","render_index":0,"reverse":false,"source_timerange":{"duration":589222,"start":0},"speed":1,"target_timerange":{"duration":589222,"start":7099963},"template_id":"","template_scene":"default","track_attribute":1,"track_render_index":0,"visible":true,"volume":0}],"type":"video"},{"attribute":0,"flag":2,"id":"5AB28900-46B9-41F4-B8CE-0DFD583A7DF0","segments":[{"cartoon":false,"clip":{"alpha":0.47,"flip":{"horizontal":false,"vertical":false},"rotation":0,"scale":{"x":1.732851985559567,"y":1.732851985559567},"transform":{"x":0,"y":0}},"common_keyframes":[],"enable_adjust":true,"enable_color_curves":true,"enable_color_wheels":true,"enable_lut":true,"enable_smart_color_adjust":false,"extra_material_refs":["DF27D2E6-B4F2-486D-BDD3-F2149ACB01D7","BFCEFF9C-EB6B-49B3-8C19-26136BCE9B56","25B1A0BA-00E4-4C29-9E39-87456C906C1E","AFFF5B1E-FF81-4CEF-88BD-A234B3B0A5BE","F6A48E28-7DE7-44BD-BB9A-ACC4655EACDF"],"group_id":"","hdr_settings":{"intensity":1,"mode":1,"nits":1000},"id":"34E6BABB-0F97-4CCE-B9A6-87C4CE7AA831","intensifies_audio":false,"is_placeholder":false,"is_tone_modify":false,"keyframe_refs":[],"last_nonzero_volume":1,"material_id":"DAC4CDC6-0402-4A28-8A7F-F415C07C10BC","render_index":1,"reverse":false,"source_timerange":{"duration":5454786,"start":0},"speed":1,"target_timerange":{"duration":5454786,"start":2234399},"template_id":"","template_scene":"default","track_attribute":0,"track_render_index":0,"visible":true,"volume":1}],"type":"video"},{"attribute":0,"flag":2,"id":"7F77E5D5-11CD-44DE-B497-E092AE2AAEB1","segments":[{"cartoon":false,"clip":{"alpha":1,"flip":{"horizontal":false,"vertical":false},"rotation":0,"scale":{"x":4.027212446433889,"y":4.027212446433889},"transform":{"x":0,"y":0}},"common_keyframes":[],"enable_adjust":true,"enable_color_curves":true,"enable_color_wheels":true,"enable_lut":true,"enable_smart_color_adjust":false,"extra_material_refs":["87FEA095-C1B3-4D94-AE80-B7ECC9B94C8A","415CED7E-9C94-4E18-8E90-2B610420612D","AFF2A08B-7D68-4FA1-9EA5-1BE9A931C87B","47DC6767-BDEE-420D-8F4A-0361C58BDE95"],"group_id":"","hdr_settings":{"intensity":1,"mode":1,"nits":1000},"id":"A0CE89E3-280F-499A-A81C-1638DCA89803","intensifies_audio":false,"is_placeholder":false,"is_tone_modify":false,"keyframe_refs":[],"last_nonzero_volume":1,"material_id":"D9A01438-7D3D-4D99-9FA6-A448BF1182DB","render_index":2,"reverse":false,"source_timerange":{"duration":994371,"start":0},"speed":1,"target_timerange":{"duration":994371,"start":2234427},"template_id":"","template_scene":"default","track_attribute":0,"track_render_index":0,"visible":true,"volume":1},{"cartoon":false,"clip":{"alpha":1,"flip":{"horizontal":false,"vertical":false},"rotation":0,"scale":{"x":4.027212446433889,"y":4.027212446433889},"transform":{"x":0,"y":0}},"common_keyframes":[],"enable_adjust":true,"enable_color_curves":true,"enable_color_wheels":true,"enable_lut":true,"enable_smart_color_adjust":false,"extra_material_refs":["0A381596-44FF-4339-A3A8-B4A72729CEDA","BA605E04-61BB-4029-9D61-87AB3CA59651","5EC08EED-87C9-47B6-9CCF-5C9184510BFB","1C167D20-025C-4768-81A9-0AC417B3D134"],"group_id":"","hdr_settings":{"intensity":1,"mode":1,"nits":1000},"id":"F7070792-3845-497F-A07D-822D4B7CFCB3","intensifies_audio":false,"is_placeholder":false,"is_tone_modify":false,"keyframe_refs":[],"last_nonzero_volume":1,"material_id":"89006966-4160-4809-9023-7D3F00C11E5A","render_index":3,"reverse":false,"source_timerange":{"duration":980921,"start":0},"speed":1,"target_timerange":{"duration":980921,"start":6708264},"template_id":"","template_scene":"default","track_attribute":0,"track_render_index":0,"visible":true,"volume":1}],"type":"video"},{"attribute":0,"flag":0,"id":"0EDE06D2-6522-4823-B1C9-A8160AE9497E","segments":[{"cartoon":false,"common_keyframes":[],"enable_adjust":false,"enable_color_curves":true,"enable_color_wheels":true,"enable_lut":false,"enable_smart_color_adjust":false,"extra_material_refs":["D4133E57-D2AA-490D-874E-376E98602738","60EE0AB5-2E85-41B7-A605-D8953F1156B0","88F7239E-C6EE-485D-B4D4-563A72B57610","8495DD27-E29B-496B-B357-3BC871BFA0F9"],"group_id":"","id":"8F7912CF-0FD4-4D4D-814A-E9D350B203B7","intensifies_audio":false,"is_placeholder":false,"is_tone_modify":false,"keyframe_refs":[],"last_nonzero_volume":1,"material_id":"3A783E1C-C28B-44FF-A988-9A8FD172D7F9","render_index":0,"reverse":false,"source_timerange":{"duration":7687500,"start":0},"speed":1,"target_timerange":{"duration":7687500,"start":0},"template_id":"","template_scene":"default","track_attribute":0,"track_render_index":0,"visible":true,"volume":1}],"type":"audio"},{"attribute":0,"flag":0,"id":"99685C9D-52A3-4196-B92E-BDC83BA7567F","segments":[{"cartoon":false,"clip":{"alpha":1,"flip":{"horizontal":false,"vertical":false},"rotation":0,"scale":{"x":0.49061119556427,"y":0.49061119556427},"transform":{"x":0,"y":0}},"common_keyframes":[],"enable_adjust":false,"enable_color_curves":true,"enable_color_wheels":true,"enable_lut":false,"enable_smart_color_adjust":false,"extra_material_refs":["FDD1D995-4809-4708-BD16-1D261AAFD939"],"group_id":"","id":"75DB5BE4-D214-4D19-809B-0FF91DE0ADAD","intensifies_audio":false,"is_placeholder":false,"is_tone_modify":false,"keyframe_refs":[],"last_nonzero_volume":1,"material_id":"CE6CA581-8C3A-4C41-B901-E1B033DB3CDA","render_index":14000,"reverse":false,"speed":1,"target_timerange":{"duration":1700332,"start":534068},"template_id":"","template_scene":"default","track_attribute":0,"track_render_index":0,"visible":true,"volume":1},{"cartoon":false,"clip":{"alpha":1,"flip":{"horizontal":false,"vertical":false},"rotation":0,"scale":{"x":0.645475566387177,"y":0.645475566387177},"transform":{"x":-0.008298755186722,"y":0}},"common_keyframes":[],"enable_adjust":false,"enable_color_curves":true,"enable_color_wheels":true,"enable_lut":false,"enable_smart_color_adjust":false,"extra_material_refs":["D2F952C9-97DF-48B9-9A60-D1AD528F422F"],"group_id":"","id":"3BB6884A-2EE7-404D-9580-C17E1CD3487E","intensifies_audio":false,"is_placeholder":false,"is_tone_modify":false,"keyframe_refs":[],"last_nonzero_volume":1,"material_id":"8D90D0FC-BF11-4DB9-A95C-8979BBF4FDA7","render_index":14001,"reverse":false,"speed":1,"target_timerange":{"duration":5454785,"start":2234400},"template_id":"","template_scene":"default","track_attribute":0,"track_render_index":0,"visible":true,"volume":1}],"type":"sticker"},{"attribute":0,"flag":0,"id":"378DC6F2-9199-454E-998E-0187303DBE75","segments":[{"cartoon":false,"common_keyframes":[],"enable_adjust":false,"enable_color_curves":true,"enable_color_wheels":true,"enable_lut":false,"enable_smart_color_adjust":false,"extra_material_refs":[],"group_id":"","id":"47F082C9-F2CC-4C35-A018-C3F458788239","intensifies_audio":false,"is_placeholder":false,"is_tone_modify":false,"keyframe_refs":[],"last_nonzero_volume":1,"material_id":"BFA3B644-DBD4-41B4-B546-7D22C18A24AC","render_index":11000,"reverse":false,"speed":1,"target_timerange":{"duration":5470187,"start":2218998},"template_id":"","template_scene":"default","track_attribute":0,"track_render_index":0,"visible":true,"volume":1}],"type":"effect"}],"update_time":1689273633524273,"version":340000}